<svg xmlns="http://www.w3.org/2000/svg" width="200" height="286" viewBox="0 0 895 1280">
  <g transform="translate(0,1280) scale(0.1,-0.1)" fill="#FFFF00" stroke="none">
    <path d="M4142 12726 c-348 -395 -507 -917 -463 -1516 21 -285 54 -478 166
    -965 92 -404 108 -498 103 -630 -4 -125 -23 -175 -81 -219 -60 -46 -66 -43
    -162 89 -125 171 -220 281 -374 435 -144 143 -235 221 -366 312 -169 118 -378
    211 -545 242 -79 15 -310 22 -323 10 -3 -3 18 -38 47 -78 29 -39 96 -136 149
    -216 341 -519 542 -1025 609 -1530 16 -125 16 -460 -1 -580 -17 -123 -71 -333
    -111 -435 -35 -89 -89 -195 -99 -195 -4 0 -36 35 -71 77 -95 113 -274 289
    -396 389 -318 262 -733 473 -1050 534 -169 32 -284 24 -284 -21 0 -11 34 -45
    83 -82 498 -391 748 -1123 723 -2122 -5 -212 -27 -499 -42 -547 -4 -14 -21 -5
    -92 51 -335 263 -721 464 -992 515 -94 18 -232 21 -311 6 -62 -11 -178 -67
    -228 -108 l-33 -28 113 -64 c542 -302 795 -635 827 -1086 14 -187 -1 -355 -73
    -798 -20 -120 -42 -274 -50 -341 -62 -534 5 -1173 177 -1680 222 -655 635
    -1236 1146 -1614 l84 -61 -296 0 -296 0 0 -235 0 -235 2855 0 2855 0 0 235 0
    235 -342 0 -343 0 155 78 c1134 574 1881 1547 2085 2717 45 265 50 320 49 605
    -2 692 -125 1265 -335 1559 -24 33 -40 48 -43 40 -2 -8 -14 -45 -26 -84 -63
    -200 -201 -365 -342 -407 -51 -15 -58 -5 -58 82 0 98 7 129 153 715 129 514
    145 647 111 934 -46 395 -204 734 -467 1000 -87 88 -241 211 -264 211 -5 0 -6
    -27 -2 -67 12 -101 11 -456 -1 -553 -25 -201 -82 -416 -147 -544 -42 -85 -102
    -167 -172 -239 -56 -58 -145 -127 -163 -127 -16 0 -21 96 -28 625 -10 707 -25
    935 -86 1300 -155 929 -532 1546 -1129 1843 -90 45 -233 102 -255 102 -4 0 22
    -66 60 -147 186 -406 286 -734 315 -1034 8 -80 -47 -580 -62 -565 -2 2 -15 59
    -29 127 -107 528 -464 1184 -954 1754 -166 194 -261 357 -375 645 -163 411
    -310 986 -400 1570 -15 96 -30 178 -34 181 -3 4 -34 -26 -69 -65z m1398 -7298
    c62 -145 85 -383 77 -817 -6 -338 -27 -644 -72 -1036 -14 -121 -28 -246 -32
    -278 l-6 -59 39 17 c240 100 508 371 882 892 67 92 135 184 151 203 29 33 32
    34 45 17 56 -72 9 -508 -90 -837 -89 -294 -227 -563 -364 -714 l-54 -59 34 8
    c124 26 307 108 447 201 94 63 266 223 333 310 24 30 44 53 46 52 5 -6 -35
    -191 -66 -301 -250 -896 -888 -1647 -1765 -2079 -169 -83 -397 -176 -555 -226
    -344 -109 -326 -105 -424 -100 -272 15 -682 247 -1007 571 -379 376 -611 842
    -670 1341 -7 62 -10 175 -6 300 7 281 48 490 154 776 35 98 192 430 202 430 3
    0 29 -96 58 -214 97 -395 195 -678 332 -961 179 -366 374 -601 596 -715 65
    -34 149 -59 161 -47 3 2 -13 69 -35 148 -215 783 -277 1481 -166 1864 28 95
    51 146 98 217 33 50 47 59 47 33 0 -29 92 -260 155 -390 159 -327 357 -535
    561 -589 l51 -13 33 146 c169 762 422 1426 716 1879 29 45 58 82 63 82 4 0 19
    -24 31 -52z" stroke="#000000" stroke-width="300"/>
</g>
</svg>
